<svg xmlns="http://www.w3.org/2000/svg" width="96" height="96" viewBox="0 0 96 96">
  <g><circle fill="#E1E1E1" cx="42.1" cy="42.5" r="33.3"/>
    <g stroke="#9E9E9E" stroke-linecap="round" stroke-linejoin="round" stroke-miterlimit="10" fill="none">
      <path stroke-width="10.642" d="M67.2 67.7l18.6 18.6"/><circle stroke-width="8.868" cx="42.1" cy="42.5" r="33.3"/>
    </g>
    <circle fill="#9E9E9E" cx="29.4" cy="44.1" r="2.2"/><circle fill="#9E9E9E" cx="52.3" cy="44.1" r="2.2"/>
    <path fill="#9E9E9E" d="M45.3 50.2c-.3 0-.5-.1-.7-.2-2.6-1.7-5.1-1.7-7.8 0-.6.4-1.5.2-1.9-.4-.4-.6-.2-1.5.4-1.9 3.5-2.2 7.2-2.2 10.7 0 .6.4.8 1.3.4 1.9-.2.3-.6.6-1.1.6z"/>
    <g opacity=".5">
      <path fill="#fff" d="M23.9 33.1c-.2 0-.5 0-.7-.1-1.1-.4-1.6-1.6-1.2-2.6 4.1-10.9 15.3-11 15.7-11 1.1 0 2 1.2 2 2.4 0 1.1-.9 2.3-2.1 2.3-.4 0-8.8-.2-11.9 8-.2.7-1 1-1.8 1z"/>
      <circle fill="#fff" cx="21.6" cy="35.9" r="1.7"/>
    </g>
  </g>
</svg>
